<?xml version="1.0" encoding="UTF-8"?>
<svg id="a" data-name="Layer 1" xmlns="http://www.w3.org/2000/svg" viewBox="0 0 1400 310">
  <g>
    <g>
      <polygon points="365.65 305.08 384.13 305.08 384.13 257.41 432.96 257.41 432.96 241.73 384.13 241.73 384.13 205.16 438.16 205.16 438.16 189.4 365.65 189.4 365.65 305.08" stroke-width="0"/>
      <path d="m523.41,257.25c6-2.95,10.51-7.12,13.51-12.5,3-5.38,4.5-11.67,4.5-18.87s-1.5-13.47-4.5-18.98c-3-5.51-7.48-9.81-13.43-12.89-5.95-3.08-13.38-4.62-22.28-4.62h-41.92v115.68h18.48v-43.4h23.21c.22,0,.44-.01.66-.01l23.25,43.41h20.88l-25.4-46.52c1.05-.4,2.07-.82,3.04-1.3Zm-45.65-52.17h21.19c5.59,0,10.13.84,13.62,2.52,3.49,1.68,6.06,4.08,7.69,7.18,1.63,3.11,2.45,6.81,2.45,11.1s-.82,7.87-2.45,10.87c-1.63,3-4.18,5.31-7.65,6.91-3.47,1.61-8,2.41-13.59,2.41h-21.27v-40.99Z" stroke-width="0"/>
      <path d="m594.91,189.4l-40.99,115.68h19.95l10.16-30.05h44.98l10.46,30.05h19.95l-41.69-115.68h-22.83Zm-5.73,70.42l6.12-18.09c1.66-5.23,3.53-11.52,5.63-18.87,1.59-5.57,3.34-11.91,5.24-19.01,1.96,7.04,3.75,13.31,5.36,18.82,2.12,7.27,4.09,13.62,5.9,19.06l6.3,18.09h-34.54Z" stroke-width="0"/>
      <path d="m744.83,254.15c-.73,2.07-1.55,4.7-2.48,7.88-.93,3.18-1.89,6.61-2.87,10.29-.98,3.68-1.92,7.25-2.79,10.71-.13.51-.25.99-.38,1.49-.14-.57-.28-1.13-.44-1.72-.91-3.52-1.85-7.1-2.83-10.75-.98-3.65-1.94-7.04-2.87-10.17-.93-3.13-1.76-5.71-2.48-7.72l-24.46-64.75h-27.33v115.68h18.01v-61.33c0-2.54-.04-5.52-.12-8.97-.08-3.44-.16-7.09-.23-10.95-.08-3.86-.16-7.67-.23-11.45-.03-1.69-.07-3.31-.11-4.9.66,2.18,1.32,4.34,1.98,6.53,1.22,4.09,2.42,8.02,3.61,11.8,1.19,3.78,2.3,7.21,3.34,10.29,1.04,3.08,1.92,5.63,2.64,7.65l23.45,61.33h15.76l23.14-61.33c.72-2.07,1.62-4.67,2.68-7.8,1.06-3.13,2.19-6.6,3.38-10.4,1.19-3.8,2.39-7.74,3.61-11.8.68-2.27,1.32-4.5,1.94-6.71-.03,1.92-.06,3.88-.12,5.89-.1,3.88-.21,7.71-.31,11.49-.1,3.78-.17,7.34-.19,10.68-.03,3.34-.04,6.22-.04,8.66v61.33h18.32v-115.68h-27.41l-24.14,64.75Z" stroke-width="0"/>
      <polygon points="839.86 254.54 890.86 254.54 890.86 238.85 839.86 238.85 839.86 205.16 894.75 205.16 894.75 189.4 821.38 189.4 821.38 305.08 895.21 305.08 895.21 289.32 839.86 289.32 839.86 254.54" stroke-width="0"/>
      <path d="m1025.1,254.54c-.98,4.19-1.94,8.55-2.87,13.08-.93,4.53-1.82,9.1-2.68,13.7-.35,1.87-.68,3.73-1.02,5.6-.36-1.86-.71-3.73-1.08-5.6-.91-4.61-1.84-9.17-2.79-13.7-.96-4.53-1.98-8.89-3.07-13.08l-16.69-65.14h-20.03l-16.85,65.14c-1.04,4.19-2.03,8.55-2.99,13.08-.96,4.53-1.86,9.1-2.72,13.7-.38,2.03-.77,4.04-1.15,6.07-.36-2.02-.73-4.04-1.1-6.07-.85-4.61-1.72-9.17-2.6-13.7-.88-4.53-1.84-8.89-2.87-13.08l-16.3-65.14h-19.49l31.29,115.68h21.35l17.93-67.47c1.6-6.11,2.94-12.32,4-18.63.44-2.63.91-5.37,1.41-8.18.53,3.07,1.06,6.04,1.58,8.88,1.19,6.47,2.51,12.45,3.96,17.93l18.01,67.47h21.19l31.52-115.68h-19.72l-16.23,65.14Z" stroke-width="0"/>
      <path d="m1151.22,194.99c-7.89-4.76-16.86-7.14-26.9-7.14s-18.94,2.38-26.86,7.14c-7.92,4.76-14.17,11.57-18.75,20.42-4.58,8.85-6.87,19.49-6.87,31.91s2.29,22.92,6.87,31.79c4.58,8.88,10.83,15.68,18.75,20.42,7.92,4.74,16.87,7.1,26.86,7.1s19.01-2.37,26.9-7.1c7.89-4.74,14.12-11.53,18.67-20.38,4.55-8.85,6.83-19.46,6.83-31.83s-2.28-23.06-6.83-31.91c-4.56-8.85-10.78-15.66-18.67-20.42Zm2.68,75.62c-2.95,6.37-6.99,11.18-12.11,14.44-5.12,3.26-10.95,4.89-17.47,4.89s-12.36-1.64-17.51-4.93c-5.15-3.29-9.2-8.1-12.15-14.44-2.95-6.34-4.43-14.09-4.43-23.25s1.48-17,4.43-23.37c2.95-6.37,7-11.19,12.15-14.48,5.15-3.29,10.99-4.93,17.51-4.93s12.34,1.63,17.47,4.89c5.12,3.26,9.16,8.07,12.11,14.44,2.95,6.37,4.43,14.18,4.43,23.45s-1.47,16.92-4.43,23.29Z" stroke-width="0"/>
      <path d="m1261.89,257.25c6-2.95,10.51-7.12,13.51-12.5,3-5.38,4.5-11.67,4.5-18.87s-1.5-13.47-4.5-18.98c-3-5.51-7.48-9.81-13.43-12.89-5.95-3.08-13.38-4.62-22.28-4.62h-41.92v115.68h18.48v-43.4h23.21c.22,0,.44-.01.66-.01l23.25,43.41h20.88l-25.4-46.52c1.05-.4,2.07-.82,3.04-1.3Zm-45.65-52.17h21.2c5.59,0,10.13.84,13.62,2.52,3.49,1.68,6.06,4.08,7.69,7.18,1.63,3.11,2.45,6.81,2.45,11.1s-.82,7.87-2.45,10.87c-1.63,3-4.18,5.31-7.65,6.91-3.47,1.61-8,2.41-13.59,2.41h-21.27v-40.99Z" stroke-width="0"/>
      <path d="m1372.29,305.08h21.82l-45.78-65.58,45.23-50.09h-23.29l-31.99,35.63c-3.16,3.62-6.11,7.1-8.85,10.44-2.74,3.34-5.34,6.73-7.8,10.17-.82,1.15-1.65,2.34-2.48,3.55l.27-23.47v-36.33h-18.48v115.68h18.48v-35.9l16.14-17.43,36.73,53.33Z" stroke-width="0"/>
    </g>
    <g>
      <polygon points="367.1 175.26 411.92 175.26 411.92 118.68 476.27 118.68 476.27 83.4 411.92 83.4 411.92 46.12 483.37 46.12 483.37 9.95 367.1 9.95 367.1 175.26" stroke-width="0"/>
      <rect x="499.79" y="9.95" width="44.82" height="165.31" stroke-width="0"/>
      <path d="m669.36,124.56c-1.52,2.88-3.49,5.36-5.94,7.43-2.44,2.07-5.29,3.66-8.54,4.77-3.26,1.11-6.95,1.66-11.09,1.66-7.32,0-13.55-1.7-18.69-5.1-5.14-3.4-9.08-8.5-11.82-15.31-2.74-6.8-4.1-15.24-4.1-25.3s1.33-17.84,3.99-24.69c2.66-6.84,6.6-12.09,11.82-15.75,5.21-3.66,11.56-5.49,19.03-5.49,4.14,0,7.86.55,11.15,1.66,3.29,1.11,6.12,2.7,8.49,4.77,2.37,2.07,4.27,4.55,5.71,7.43,1.44,2.88,2.39,6.1,2.83,9.65h45.49c-1.04-9.98-3.59-18.86-7.66-26.63s-9.39-14.31-15.97-19.64c-6.58-5.33-14.22-9.37-22.91-12.15-8.69-2.77-18.18-4.16-28.46-4.16-14.79,0-28.22,3.24-40.27,9.71-12.06,6.47-21.63,16.03-28.73,28.68-7.1,12.65-10.65,28.18-10.65,46.6s3.49,33.71,10.48,46.32c6.99,12.61,16.49,22.17,28.51,28.68,12.02,6.51,25.57,9.76,40.66,9.76,12.13,0,22.76-1.91,31.9-5.71,9.13-3.81,16.83-8.82,23.08-15.03,6.25-6.21,11.06-12.98,14.42-20.3,3.37-7.32,5.31-14.5,5.82-21.52h-45.49c-.52,3.55-1.54,6.77-3.05,9.65Z" stroke-width="0"/>
      <polygon points="731.33 46.12 780.7 46.12 780.7 175.26 825.52 175.26 825.52 46.12 874.89 46.12 874.89 9.95 731.33 9.95 731.33 46.12" stroke-width="0"/>
      <path d="m1002.25,17.44c-12.13-6.47-25.7-9.71-40.72-9.71s-28.61,3.24-40.77,9.71c-12.17,6.47-21.8,16.03-28.9,28.68s-10.65,28.18-10.65,46.6,3.55,33.71,10.65,46.32c7.1,12.61,16.73,22.17,28.9,28.68,12.17,6.51,25.76,9.76,40.77,9.76s28.59-3.23,40.72-9.71c12.13-6.47,21.76-16.01,28.9-28.62,7.14-12.61,10.71-28.09,10.71-46.43s-3.57-33.95-10.71-46.6c-7.14-12.65-16.77-22.21-28.9-28.68Zm-10.43,100.24c-2.59,6.81-6.42,11.96-11.48,15.48-5.07,3.51-11.34,5.27-18.81,5.27s-13.63-1.76-18.69-5.27c-5.07-3.51-8.91-8.67-11.54-15.48-2.63-6.8-3.94-15.12-3.94-24.96s1.31-18.29,3.94-25.13c2.62-6.84,6.47-12.02,11.54-15.53,5.07-3.51,11.3-5.27,18.69-5.27s13.74,1.76,18.81,5.27c5.07,3.51,8.89,8.69,11.48,15.53,2.59,6.84,3.88,15.22,3.88,25.13s-1.29,18.16-3.88,24.96Z" stroke-width="0"/>
      <path d="m1097.22,9.95l-53.59,165.31h50.15l9.06-31.73h50.9l9.5,31.73h50.81l-55.58-165.31h-61.24Zm46.5,100.07h-31.32c3.87-13.57,7.36-27.63,10.45-42.21,1.51-7.11,3.01-14.2,4.5-21.28,1.64,7.07,3.31,14.16,5.04,21.28,3.53,14.58,7.31,28.65,11.33,42.21Z" stroke-width="0"/>
      <path d="m1337.2,9.95v60.58c0,5.25.22,11.7.67,19.36.44,7.66.94,15.42,1.5,23.3.16,2.31.32,4.53.46,6.68-1.24-3.4-2.46-6.6-3.68-9.57-2.77-6.77-5.64-12.96-8.6-18.58-2.96-5.62-6.14-11.24-9.54-16.86l-39.38-64.9h-48.82v165.31h46.15v-60.35c0-4.51-.17-10.06-.5-16.64-.33-6.58-.78-13.72-1.33-21.41-.24-3.39-.49-6.79-.75-10.2,1.56,3.59,3.03,6.96,4.41,10.09,2.92,6.66,5.95,12.96,9.1,18.92,3.14,5.95,6.79,12.37,10.93,19.25l36.72,60.35h48.82V9.95h-46.15Z" stroke-width="0"/>
    </g>
  </g>
  <g>
    <path d="m284.28,108.08l-61.76,61.76c-2.52,2.52-6.82.73-6.82-2.83v-22.48c0-4.24,1.69-8.31,4.69-11.31l94.56-94.56c3.12-3.12,3.12-8.19,0-11.31l-15.15-15.15c-3.12-3.12-8.19-3.12-11.31,0l-105.52,105.52c-3,3-4.69,7.07-4.69,11.31v161.51c0,4.42,3.58,8,8,8h21.42c4.42,0,8-3.58,8-8v-54.33c0-4.24,1.69-8.31,4.69-11.32l90.35-90.35c3.12-3.12,3.12-8.19,0-11.31l-15.15-15.15c-3.12-3.12-8.19-3.12-11.31,0Z" stroke-width="0"/>
    <path d="m26.82,12.19l-15.15,15.15c-3.12,3.12-3.12,8.19,0,11.31l94.56,94.56c3,3,4.69,7.07,4.69,11.31v22.48c0,3.56-4.31,5.35-6.82,2.83l-61.76-61.76c-3.12-3.12-8.19-3.12-11.31,0l-15.15,15.15c-3.12,3.12-3.12,8.19,0,11.31l90.35,90.35c3,3,4.69,7.07,4.69,11.32v54.33c0,4.42,3.58,8,8,8h21.42c4.42,0,8-3.58,8-8v-161.51c0-4.24-1.69-8.31-4.69-11.31L38.13,12.19c-3.12-3.12-8.19-3.12-11.31,0Z" stroke-width="0"/>
  </g>
</svg>